<svg t="1625322967003" class="icon" viewBox="0 0 1024 1024" version="1.1" xmlns="http://www.w3.org/2000/svg" p-id="8135" width="200" height="200"><path d="M838.4 419.2h-99.2V294.4h3.2C742.4 166.4 640 64 512 64S281.6 166.4 281.6 294.4v124.8h-96c-35.2 0-64 28.8-64 64v419.2c3.2 28.8 25.6 51.2 54.4 54.4h675.2c25.6-6.4 44.8-25.6 51.2-51.2V476.8c-6.4-28.8-32-54.4-64-57.6z m-480-124.8c0-83.2 67.2-153.6 153.6-153.6 80 0 147.2 60.8 153.6 144 0 3.2-3.2 6.4-3.2 9.6v124.8h-304V294.4c0 3.2 0 0 0 0z m211.2 544h-115.2v-288h115.2v288z" p-id="8136" fill="#bfbfbf"></path></svg>