<svg t="1625322852103" class="icon" viewBox="0 0 1024 1024" version="1.1" xmlns="http://www.w3.org/2000/svg" p-id="5240" width="200" height="200"><path d="M882.310466 723.220632c-23.274076-21.87317-35.987632-61.776995-159.41371-79.68076-120.003118-17.072841-105.446587-75.94467-106.276489-79.681784 0.207731-9.573029 0-52.113915 0-52.113915s36.896328-21.261233 52.489468-82.59923c29.785374-18.473747 48.857754-29.916357 53.788044-51.244104 0 0 7.679913-72.571852-27.088962-73.817216 0 0-3.736091 13.024641 0.51984-5.863545 4.253884-18.889209 2.12643-85.312014 0-106.276489-2.127454-20.965497-8.355295-97.844445-53.138244-106.250906-30.566156-5.604648-38.22151 4.14746-53.139268 2.046612-14.918781-2.075265-28.462239-22.579251-56.199976-22.579251l-50.076512 0.104377c-27.736715 0-38.219463 21.423939-53.138244 23.499204-14.919804 2.100848-8.355295-11.425214-53.138244-3.069919-44.783972 8.40646-51.010791 58.690704-53.138244 79.681784-2.128477 20.964474-1.427512 101.371782 0 132.845611 0.030699 0.138146 0.057305 0.25378 0.086981 0.387833-0.054235-0.2415-0.086981-0.387833-0.086981-0.387833-36.792974-1.713015-26.569122 79.68076-26.569122 79.68076 3.866051 20.290115 7.964392 37.129642 47.714721 52.827159 18.915815 53.033867 58.561767 81.016175 58.561767 81.016175s-0.753153 27.906583 0 52.113915c-4.048199-1.997494 17.149589 61.779042-106.276489 79.681784-123.4271 17.903765-139.617851 62.272275-162.865321 84.145445-23.274076 21.924335-23.388686 127.020952-23.388686 127.020952l797.576107 1.413186C909.111878 856.118432 905.584542 745.145991 882.310466 723.220632zM324.755943 299.982212c0.11768 0.522909 0.252757 1.12052 0.39295 1.741667C325.028143 301.189713 324.90023 300.620755 324.755943 299.982212z" p-id="5241" fill="#bfbfbf"></path></svg>